<?xml version="1.0" standalone="no"?>
<!DOCTYPE svg PUBLIC "-//W3C//DTD SVG 20010904//EN"
 "http://www.w3.org/TR/2001/REC-SVG-20010904/DTD/svg10.dtd">
<svg version="1.0" xmlns="http://www.w3.org/2000/svg"
 width="100.000000pt" height="100.000000pt" viewBox="0 0 100.000000 100.000000"
 preserveAspectRatio="xMidYMid meet">
<metadata>
Created by potrace 1.11, written by Peter Selinger 2001-2013
</metadata>
<g transform="translate(0.000000,100.000000) scale(0.100000,-0.100000)"
fill="#000000" stroke="none">
<path d="M245 868 c-3 -7 -4 -177 -3 -378 3 -317 5 -365 18 -365 13 0 15 48
15 374 0 291 -3 375 -12 378 -7 3 -15 -1 -18 -9z"/>
<path d="M725 868 c-3 -7 -4 -177 -3 -378 3 -317 5 -365 18 -365 13 0 15 48
15 374 0 291 -3 375 -12 378 -7 3 -15 -1 -18 -9z"/>
<path d="M125 688 c-3 -7 -4 -97 -3 -198 3 -157 5 -185 18 -185 13 0 15 28 15
194 0 147 -3 195 -12 198 -7 3 -15 -1 -18 -9z"/>
<path d="M845 688 c-3 -7 -4 -97 -3 -198 3 -157 5 -185 18 -185 13 0 15 28 15
194 0 147 -3 195 -12 198 -7 3 -15 -1 -18 -9z"/>
<path d="M365 668 c-3 -8 -4 -88 -3 -178 3 -139 5 -165 18 -165 13 0 15 26 15
174 0 131 -3 175 -12 178 -7 3 -15 -2 -18 -9z"/>
<path d="M605 668 c-3 -8 -4 -88 -3 -178 3 -139 5 -165 18 -165 13 0 15 26 15
174 0 131 -3 175 -12 178 -7 3 -15 -2 -18 -9z"/>
<path d="M4 567 c-3 -8 -4 -43 -2 -78 2 -49 7 -64 18 -64 12 0 15 15 15 74 0
51 -4 76 -12 78 -7 3 -15 -2 -19 -10z"/>
<path d="M484 567 c-3 -8 -4 -43 -2 -78 2 -49 7 -64 18 -64 12 0 15 15 15 74
0 51 -4 76 -12 78 -7 3 -15 -2 -19 -10z"/>
<path d="M964 567 c-3 -8 -4 -43 -2 -78 2 -49 7 -64 18 -64 12 0 15 15 15 74
0 51 -4 76 -12 78 -7 3 -15 -2 -19 -10z"/>
</g>
</svg>
